<?xml version="1.0" standalone="no"?><!DOCTYPE svg PUBLIC "-//W3C//DTD SVG 1.1//EN" "http://www.w3.org/Graphics/SVG/1.1/DTD/svg11.dtd"><svg t="1612772876428" class="icon" viewBox="0 0 1024 1024" version="1.1" xmlns="http://www.w3.org/2000/svg" p-id="10745" xmlns:xlink="http://www.w3.org/1999/xlink" width="128" height="128"><defs><style type="text/css"></style></defs><path d="M394.1 689.4c-26.4 1.9-118.5-95.9-185.8-171.8 67.1-77.5 165.1-184.7 192.3-182.7-70.9-100.6-193.4 11.5-266.7 96.5-0.4-0.5-0.6-0.7-0.6-0.7L64 516.9s223.2 321.6 330.1 172.5z m278.2 0c-26.4 1.9-118.6-95.9-185.9-171.8 67.1-77.5 165.2-184.7 192.4-182.7-70.9-100.6-193.5 11.5-266.7 96.5-0.4-0.5-0.6-0.7-0.6-0.7l-69.3 86.2s223.2 321.6 330.1 172.5z m21-258c-0.4-0.5-0.6-0.7-0.6-0.7l-69.3 86.2s223.2 321.6 330.1 172.5c-26.4 1.9-118.6-95.9-185.9-171.8 67.1-77.5 165.2-184.7 192.4-182.7-70.9-100.7-193.5 11.5-266.7 96.5z" fill="#409EFF" p-id="10746"></path></svg>