<?xml version="1.0" standalone="no"?><!DOCTYPE svg PUBLIC "-//W3C//DTD SVG 1.1//EN" "http://www.w3.org/Graphics/SVG/1.1/DTD/svg11.dtd"><svg t="1612772872941" class="icon" viewBox="0 0 1024 1024" version="1.1" xmlns="http://www.w3.org/2000/svg" p-id="10544" xmlns:xlink="http://www.w3.org/1999/xlink" width="128" height="128"><defs><style type="text/css"></style></defs><path d="M545 768.1c-38.4 2.7-172.8-138.5-270.8-248.1C372 408.2 514.9 253.4 554.6 256.3 451.3 111 272.6 272.9 166 395.7c-0.6-0.7-0.9-1-0.9-1L64 519.1s325.3 464.4 481 249z m26.3-372.5c-0.5-0.7-0.8-1-0.8-1L469.4 519.1s325.3 464.3 481.1 249c-38.4 2.7-172.8-138.5-270.8-248.1C777.4 408.2 920.3 253.4 960 256.3 856.7 111 678 272.9 571.3 395.6z" fill="#409EFF" p-id="10545"></path></svg>