<?xml version="1.0" standalone="no"?><!DOCTYPE svg PUBLIC "-//W3C//DTD SVG 1.1//EN" "http://www.w3.org/Graphics/SVG/1.1/DTD/svg11.dtd"><svg t="1612772484798" class="icon" viewBox="0 0 1024 1024" version="1.1" xmlns="http://www.w3.org/2000/svg" p-id="1246" xmlns:xlink="http://www.w3.org/1999/xlink" width="128" height="128"><defs><style type="text/css"></style></defs><path d="M528.5 408.3H330.7c-10.9 0-19.8 8.9-19.8 19.8s8.9 19.8 19.8 19.8h197.8c10.9 0 19.8-8.9 19.8-19.8s-8.9-19.8-19.8-19.8z m398.9 408.6L822.4 712c-24.2-24.2-60.1-29.2-89.4-15.4l-34.8-34.8c54.4-62.5 87.5-144.2 87.5-233.6C785.7 231.4 626.3 72 429.6 72 232.9 72 73.5 231.4 73.5 428.1s159.4 356.1 356.1 356.1c82.9 0 159.1-28.4 219.7-75.9L690 749c-6.4 26 0.3 54.6 20.6 74.9l104.9 104.9c30.9 30.9 81 30.9 111.9 0 30.9-30.9 30.9-81 0-111.9z m-497.8-72.2C254.8 744.7 113 602.9 113 428.1s141.7-316.6 316.6-316.6c174.8 0 316.6 141.7 316.6 316.6S604.4 744.7 429.6 744.7z m469.8 156.1c-15.5 15.5-40.5 15.5-56 0L738.5 795.9c-15.5-15.5-15.5-40.5 0-56s40.5-15.5 56 0l104.9 104.9c15.4 15.5 15.4 40.6 0 56zM429.6 161c-147.5 0-267.1 119.6-267.1 267.1s119.6 267.1 267.1 267.1c147.5 0 267.1-119.6 267.1-267.1S577.1 161 429.6 161z m0 494.7C303.9 655.7 202 553.8 202 428.1c0-125.7 101.9-227.5 227.5-227.5 125.7 0 227.5 101.9 227.5 227.5 0.1 125.7-101.8 227.6-227.4 227.6z" p-id="1247" fill="#409EFF"></path></svg>