<?xml version="1.0" standalone="no"?><!DOCTYPE svg PUBLIC "-//W3C//DTD SVG 1.1//EN" "http://www.w3.org/Graphics/SVG/1.1/DTD/svg11.dtd"><svg t="1612772894342" class="icon" viewBox="0 0 1024 1024" version="1.1" xmlns="http://www.w3.org/2000/svg" p-id="11344" xmlns:xlink="http://www.w3.org/1999/xlink" width="128" height="128"><defs><style type="text/css"></style></defs><path d="M629.9 334.6c26.4-1.9 118.5 95.9 185.8 171.8-67.1 77.5-165.1 184.7-192.3 182.7 70.9 100.6 193.4-11.5 266.7-96.5 0.4 0.5 0.6 0.7 0.6 0.7l69.4-86.2c-0.1 0-223.3-321.6-330.2-172.5z m-278.2 0c26.4-1.9 118.6 95.9 185.9 171.8-67.1 77.5-165.2 184.7-192.4 182.7 70.9 100.6 193.5-11.5 266.7-96.5 0.4 0.5 0.6 0.7 0.6 0.7l69.3-86.2S458.6 185.5 351.7 334.6z m-21 258c0.4 0.5 0.6 0.7 0.6 0.7l69.3-86.2S177.4 185.5 70.5 334.6c26.4-1.9 118.6 95.9 185.9 171.8C189.3 583.9 91.2 691.1 64 689.1c70.9 100.7 193.5-11.5 266.7-96.5z" fill="#409EFF" p-id="11345"></path></svg>