<?xml version="1.0" standalone="no"?><!DOCTYPE svg PUBLIC "-//W3C//DTD SVG 1.1//EN" "http://www.w3.org/Graphics/SVG/1.1/DTD/svg11.dtd"><svg t="1612772887287" class="icon" viewBox="0 0 1024 1024" version="1.1" xmlns="http://www.w3.org/2000/svg" p-id="11143" xmlns:xlink="http://www.w3.org/1999/xlink" width="128" height="128"><defs><style type="text/css"></style></defs><path d="M479 255.9c38.4-2.7 172.8 138.5 270.8 248.1C652 615.8 509.1 770.6 469.4 767.7 572.7 913 751.4 751.1 858 628.3c0.6 0.7 0.9 1 0.9 1L960 504.9s-325.3-464.4-481-249z m-26.3 372.5c0.5 0.7 0.8 1 0.8 1l101.1-124.5S229.3 40.6 73.5 255.9c38.4-2.7 172.8 138.5 270.8 248.1C246.6 615.8 103.7 770.6 64 767.7 167.3 913 346 751.1 452.7 628.4z" fill="#409EFF" p-id="11144"></path></svg>